<svg width="612" height="59" viewBox="0 0 612 59" fill="none" xmlns="http://www.w3.org/2000/svg">
<path d="M41.231 24.96V1.6H54.031V58H41.231V36.16H12.911V58H0.110962V1.6H12.911V24.96H41.231Z" fill="black"/>
<path d="M85.3253 25.12L97.4053 1.6H111.085L90.1253 39.84V58H77.3253V39.84L56.4453 1.6H70.1253L82.1253 25.12V32.32H85.3253V25.12Z" fill="black"/>
<path d="M132.935 1.6C138.269 1.6 142.722 2.10667 146.295 3.12C149.922 4.08 152.775 6.02667 154.855 8.96C156.989 11.84 158.055 15.9733 158.055 21.36C158.055 26.8 156.989 30.9867 154.855 33.92C152.775 36.8 149.922 38.7467 146.295 39.76C142.722 40.72 138.269 41.2 132.935 41.2H125.495V58H112.695V1.6H132.935ZM133.735 30C136.615 30 138.829 29.8133 140.375 29.44C141.975 29.0667 143.175 28.2667 143.975 27.04C144.829 25.76 145.255 23.8667 145.255 21.36C145.255 18.8533 144.829 16.9867 143.975 15.76C143.175 14.5333 141.975 13.7333 140.375 13.36C138.829 12.9867 136.615 12.8 133.735 12.8H125.495V30H133.735Z" fill="black"/>
<path d="M201.532 58H161.292V1.6H201.532V12.8H174.092V24.16H197.532V35.36H174.092V46.8H201.532V58Z" fill="black"/>
<path d="M205.514 58V1.6H227.354C234.981 1.6 241.061 2.77334 245.594 5.12C250.181 7.41334 252.474 11.4933 252.474 17.36C252.474 21.5733 251.114 24.6133 248.394 26.48C245.727 28.3467 242.314 29.52 238.154 30V33.2H246.394C248.581 33.2 250.261 33.7867 251.434 34.96C252.607 36.1333 253.194 37.8133 253.194 40V58H240.394V38.16H218.314V58H205.514ZM227.354 26.96C230.501 26.96 232.874 26.8533 234.474 26.64C236.074 26.4267 237.327 25.8133 238.234 24.8C239.194 23.7867 239.674 22.16 239.674 19.92C239.674 17.68 239.194 16.0533 238.234 15.04C237.327 14.0267 236.074 13.4133 234.474 13.2C232.874 12.9333 230.501 12.8 227.354 12.8H218.314V26.96H227.354Z" fill="black"/>
<path d="M255.577 29.76C255.577 24.1067 256.803 19.0933 259.257 14.72C261.71 10.3467 265.097 6.93334 269.417 4.48C273.737 2.02667 278.59 0.800003 283.977 0.800003C288.617 0.800003 292.883 1.70667 296.777 3.52C300.67 5.28 303.843 7.76001 306.297 10.96C308.75 14.1067 310.243 17.7067 310.777 21.76H297.977C297.337 18.4 295.897 15.9467 293.657 14.4C291.417 12.8 288.19 12 283.977 12C273.577 12 268.377 17.92 268.377 29.76C268.377 35.9467 269.497 40.48 271.737 43.36C274.03 46.1867 277.523 47.6 282.217 47.6C286.11 47.6 289.15 46.64 291.337 44.72C293.577 42.7467 294.697 39.8933 294.697 36.16H281.657V26.56H311.097C313.283 26.56 314.963 27.1467 316.137 28.32C317.31 29.4933 317.897 31.1733 317.897 33.36V58H305.097V38.56L307.497 29.76H304.297C304.243 38.9333 302.35 46.08 298.617 51.2C294.883 56.2667 289.257 58.8 281.737 58.8C276.19 58.8 271.443 57.6 267.497 55.2C263.603 52.7467 260.643 49.36 258.617 45.04C256.59 40.6667 255.577 35.5733 255.577 29.76Z" fill="black"/>
<path d="M379.249 58H366.289L361.649 43.92H337.889L333.249 58H320.289L339.329 1.6H360.129L379.249 58ZM348.129 12.8L341.569 32.72H357.889L351.329 12.8H348.129Z" fill="black"/>
<path d="M388.575 58.8C386.389 58.8533 384.682 58.2933 383.455 57.12C382.282 55.9467 381.695 54.2667 381.695 52.08V1.6H394.495V47.6L421.935 46.8V58L388.575 58.8Z" fill="black"/>
<path d="M432.016 58.8C429.829 58.8533 428.123 58.2933 426.896 57.12C425.723 55.9467 425.136 54.2667 425.136 52.08V1.6H437.936V47.6L465.376 46.8V58L432.016 58.8Z" fill="black"/>
<path d="M508.817 58H468.577V1.6H508.817V12.8H481.377V24.16H504.817V35.36H481.377V46.8H508.817V58Z" fill="black"/>
<path d="M512.798 58V1.6H534.638C542.265 1.6 548.345 2.77334 552.878 5.12C557.465 7.41334 559.758 11.4933 559.758 17.36C559.758 21.5733 558.398 24.6133 555.678 26.48C553.012 28.3467 549.598 29.52 545.438 30V33.2H553.678C555.865 33.2 557.545 33.7867 558.718 34.96C559.892 36.1333 560.478 37.8133 560.478 40V58H547.678V38.16H525.598V58H512.798ZM534.638 26.96C537.785 26.96 540.158 26.8533 541.758 26.64C543.358 26.4267 544.612 25.8133 545.518 24.8C546.478 23.7867 546.958 22.16 546.958 19.92C546.958 17.68 546.478 16.0533 545.518 15.04C544.612 14.0267 543.358 13.4133 541.758 13.2C540.158 12.9333 537.785 12.8 534.638 12.8H525.598V26.96H534.638Z" fill="black"/>
<path d="M585.357 25.12L597.437 1.6H611.117L590.157 39.84V58H577.357V39.84L556.477 1.6H570.157L582.157 25.12V32.32H585.357V25.12Z" fill="black"/>
</svg>
